<?xml version="1.0" standalone="no"?>
<!DOCTYPE svg PUBLIC "-//W3C//DTD SVG 20010904//EN"
 "http://www.w3.org/TR/2001/REC-SVG-20010904/DTD/svg10.dtd">
<svg version="1.0" xmlns="http://www.w3.org/2000/svg"
 width="260.000000pt" height="260.000000pt" viewBox="0 0 260.000000 260.000000"
 preserveAspectRatio="xMidYMid meet">
<metadata>
Created by potrace 1.11, written by Peter Selinger 2001-2013
</metadata>
<g transform="translate(0.000000,260.000000) scale(0.100000,-0.100000)"
fill="#000000" stroke="none">
<path d="M1277 2284 c-23 -13 -88 -93 -196 -243 l-17 -25 -130 42 c-72 23
-146 42 -165 42 -51 0 -94 -31 -114 -83 -21 -55 -10 -99 33 -139 32 -30 377
-148 432 -148 53 0 83 26 176 155 188 260 191 266 160 340 -27 65 -115 94
-179 59z"/>
<path d="M1703 2134 c-20 -10 -40 -32 -53 -58 -18 -38 -20 -61 -20 -249 0
-217 6 -253 46 -288 23 -21 385 -139 424 -139 79 0 130 52 130 134 0 76 -30
100 -194 155 l-137 46 -2 160 c-2 137 -5 164 -21 191 -35 58 -110 79 -173 48z"/>
<path d="M429 1713 c-38 -23 -59 -64 -59 -113 0 -37 11 -58 93 -175 l94 -132
-84 -114 c-46 -63 -86 -124 -90 -137 -18 -73 33 -149 105 -159 82 -11 92 -1
284 262 68 92 73 103 73 150 0 45 -6 58 -54 125 -163 224 -213 288 -236 298
-36 17 -95 14 -126 -5z"/>
<path d="M1805 1100 c-81 -28 -117 -46 -137 -69 -28 -31 -28 -31 -28 -179 l1
-147 23 55 c51 122 118 227 208 325 27 30 48 55 47 54 -2 0 -53 -18 -114 -39z"/>
<path d="M960 807 c-104 -35 -119 -42 -90 -44 129 -10 277 -47 389 -99 41 -19
75 -33 77 -31 9 9 -130 189 -156 202 -44 23 -84 18 -220 -28z"/>
</g>
</svg>
